HIERARCHY
ROOT joint_0
{
	OFFSET 0.000000 0.000000 0.000000
	CHANNELS 6 Xposition Yposition Zposition Zrotation Yrotation Xrotation 
	JOINT joint_1
	{
		OFFSET 7.566162 2.250183 114.799927
		CHANNELS 3 Zrotation Yrotation Xrotation
		JOINT joint_2
		{
			OFFSET -5.201660 -0.414001 104.936035
			CHANNELS 3 Zrotation Yrotation Xrotation
			JOINT joint_3
			{
				OFFSET -6.923584 -0.419739 104.718018
				CHANNELS 3 Zrotation Yrotation Xrotation
				JOINT joint_4
				{
					OFFSET 3.108887 2.881104 149.449951
					CHANNELS 3 Zrotation Yrotation Xrotation
					JOINT joint_5
					{
						OFFSET 19.988770 5.920349 90.786987
						CHANNELS 3 Zrotation Yrotation Xrotation
						End Site
						{
							OFFSET 0.000000 0.000000 0.000000
						}
					}
				}
				JOINT joint_6
				{
					OFFSET 9.283936 -30.015930 84.410034
					CHANNELS 3 Zrotation Yrotation Xrotation
					JOINT joint_7
					{
						OFFSET 47.243164 -155.716736 -23.241089
						CHANNELS 3 Zrotation Yrotation Xrotation
						JOINT joint_8
						{
							OFFSET 31.323730 -15.356873 -268.798950
							CHANNELS 3 Zrotation Yrotation Xrotation
							JOINT joint_9
							{
								OFFSET 28.122314 -2.114624 -262.450012
								CHANNELS 3 Zrotation Yrotation Xrotation
								End Site
								{
									OFFSET 0.000000 0.000000 0.000000
								}
							}
						}
					}
				}
				JOINT joint_10
				{
					OFFSET -5.580566 33.311218 83.498047
					CHANNELS 3 Zrotation Yrotation Xrotation
					JOINT joint_11
					{
						OFFSET -22.773438 160.515381 -27.138062
						CHANNELS 3 Zrotation Yrotation Xrotation
						JOINT joint_12
						{
							OFFSET 27.004395 30.848877 -267.937988
							CHANNELS 3 Zrotation Yrotation Xrotation
							JOINT joint_13
							{
								OFFSET 32.625000 14.824585 -261.518005
								CHANNELS 3 Zrotation Yrotation Xrotation
								End Site
								{
									OFFSET 0.000000 0.000000 0.000000
								}
							}
						}
					}
				}
			}
		}
	}
	JOINT joint_14
	{
		OFFSET 20.623535 -83.447632 -106.174011
		CHANNELS 3 Zrotation Yrotation Xrotation
		JOINT joint_15
		{
			OFFSET 0.661865 -23.563843 -459.915039
			CHANNELS 3 Zrotation Yrotation Xrotation
			JOINT joint_16
			{
				OFFSET -23.461670 -28.727966 -444.760971
				CHANNELS 3 Zrotation Yrotation Xrotation
				JOINT joint_17
				{
					OFFSET 178.992920 54.047363 -80.113001
					CHANNELS 3 Zrotation Yrotation Xrotation
					End Site
					{
						OFFSET 0.000000 0.000000 0.000000
					}
				}
			}
		}
	}
	JOINT joint_18
	{
		OFFSET -19.571533 84.686279 -105.380005
		CHANNELS 3 Zrotation Yrotation Xrotation
		JOINT joint_19
		{
			OFFSET -22.949951 3.639404 -459.933044
			CHANNELS 3 Zrotation Yrotation Xrotation
			JOINT joint_20
			{
				OFFSET -33.690674 4.092651 -445.010971
				CHANNELS 3 Zrotation Yrotation Xrotation
				JOINT joint_21
				{
					OFFSET 187.419678 18.953857 -76.759001
					CHANNELS 3 Zrotation Yrotation Xrotation
					End Site
					{
						OFFSET 0.000000 0.000000 0.000000
					}
				}
			}
		}
	}
}
MOTION
Frames: 18
Frame Time: 0.016667
-3392.601807 956.430969 1113.444946 -11.131545 -0.965825 0.113528 -0.265485 3.370093 1.410217 -0.383831 -0.529887 -0.375577 -0.339768 0.676999 0.207437 -0.002504 -0.722600 0.210915 0.000000 0.000000 0.000000 1.361555 1.325914 0.049675 -0.029656 1.515551 -0.018327 0.364200 -0.347896 2.948110 0.000000 0.000000 0.000000 3.596870 0.863874 -3.972717 0.034572 0.794774 -0.331491 0.069878 0.592435 0.238912 0.000000 0.000000 0.000000 -2.949435 -0.805598 1.042695 -3.096794 1.841673 -1.560372 -2.879358 -3.036572 -0.371781 0.000000 0.000000 0.000000 0.855124 -4.382272 0.113797 0.867884 6.493987 -0.447324 0.545298 -3.795532 0.607088 0.000000 0.000000 0.000000 
-3392.530762 956.575256 1113.609009 -11.041401 -0.574534 0.013649 -0.333032 4.103381 1.313589 -0.468198 -0.640289 -0.367700 -0.424503 0.810936 0.196554 0.009703 -1.701026 0.441664 0.000000 0.000000 0.000000 1.856461 1.419724 -0.081064 -0.059669 1.670496 -0.201382 0.500857 -1.396609 3.779931 0.000000 0.000000 0.000000 3.949500 0.796478 -3.946907 0.052254 0.678100 -0.286889 -0.009071 -0.063549 -0.039507 0.000000 0.000000 0.000000 -2.970126 -1.208812 1.141583 -3.140580 1.811778 -1.517916 -2.922526 -2.992670 -0.404234 0.000000 0.000000 0.000000 0.831229 -4.828609 0.205649 0.839722 6.492105 -0.436088 0.522082 -3.717334 0.589773 0.000000 0.000000 0.000000 
-3391.685059 956.438965 1113.562988 -10.884233 0.337116 -0.175445 -0.365613 4.440750 1.085340 -0.511146 -0.806700 -0.300556 -0.475571 1.005456 0.133105 0.005519 -3.243462 0.959171 0.000000 0.000000 0.000000 2.252538 1.542363 -0.230738 -0.064891 1.853557 -0.346445 0.669585 -2.207786 4.866510 0.000000 0.000000 0.000000 4.101152 0.961594 -3.558439 0.065915 0.711854 -0.672548 -0.097464 -1.010597 -0.276445 0.000000 0.000000 0.000000 -2.999174 -2.084838 1.372492 -3.219154 1.690335 -1.471598 -3.007055 -2.885558 -0.474079 0.000000 0.000000 0.000000 0.790798 -5.754714 0.403509 0.791301 6.372654 -0.429809 0.487725 -3.569213 0.560894 0.000000 0.000000 0.000000 
-3390.307861 956.151917 1113.420044 -10.692790 1.519994 -0.409471 -0.379671 4.597176 0.781740 -0.532251 -0.970186 -0.202449 -0.509502 1.182300 0.047356 0.004622 -5.075584 1.636226 0.000000 0.000000 0.000000 2.597368 1.673825 -0.381987 -0.056040 2.041668 -0.475705 0.846970 -2.828839 6.045826 0.000000 0.000000 0.000000 4.156466 1.245033 -3.000898 0.083398 0.827289 -1.238159 -0.185291 -2.046106 -0.516900 0.000000 0.000000 0.000000 -3.033516 -3.199096 1.671662 -3.320243 1.518539 -1.424527 -3.118774 -2.732624 -0.569699 0.000000 0.000000 0.000000 0.742410 -6.916216 0.654926 0.732742 6.175404 -0.423065 0.448912 -3.362585 0.524280 0.000000 0.000000 0.000000 
-3388.548828 955.902649 1113.323975 -10.542453 2.467350 -0.613824 -0.361734 4.746221 0.530681 -0.523176 -1.044597 -0.132051 -0.510124 1.251502 -0.007211 0.003581 -6.417468 2.191024 0.000000 0.000000 0.000000 2.846315 1.707937 -0.378290 -0.054614 2.052289 -0.672398 0.939070 -2.786196 6.766647 0.000000 0.000000 0.000000 4.064120 1.419094 -2.604843 0.091609 0.919033 -1.522150 -0.241520 -2.487679 -0.796699 0.000000 0.000000 0.000000 -3.067047 -4.057052 1.932943 -3.408383 1.381992 -1.400640 -3.217883 -2.585085 -0.658084 0.000000 0.000000 0.000000 0.712608 -7.778908 0.867297 0.697599 5.953021 -0.403291 0.433813 -3.152372 0.496921 0.000000 0.000000 0.000000 
-3386.541260 955.840881 1113.370972 -10.473998 2.944443 -0.769516 -0.286863 4.946832 0.404526 -0.462759 -1.043244 -0.123211 -0.451561 1.254608 -0.014248 -0.019671 -6.882881 2.498333 0.000000 0.000000 0.000000 2.980687 1.527229 -0.072896 -0.068525 1.689189 -1.041859 0.890431 -1.516927 6.725376 0.000000 0.000000 0.000000 3.668201 1.350648 -2.533371 0.075098 0.942196 -1.259347 -0.260772 -1.877709 -1.236454 0.000000 0.000000 0.000000 -3.094537 -4.418572 2.126296 -3.457942 1.287486 -1.413330 -3.279501 -2.443997 -0.728057 0.000000 0.000000 0.000000 0.719360 -8.078336 0.999185 0.707386 5.684030 -0.344064 0.465606 -2.934734 0.487875 0.000000 0.000000 0.000000 
-3384.152832 955.817932 1113.465942 -10.444025 3.196592 -0.904532 -0.176046 5.133599 0.338005 -0.367598 -1.019564 -0.139094 -0.355140 1.248822 -0.006838 -0.061703 -6.890961 2.691055 0.000000 0.000000 0.000000 3.039021 1.239063 0.415875 -0.071726 1.116276 -1.525216 0.780342 0.436869 6.260415 0.000000 0.000000 0.000000 3.079306 1.153420 -2.612375 0.049358 0.930569 -0.717971 -0.249907 -0.688242 -1.725553 0.000000 0.000000 0.000000 -3.121627 -4.537530 2.291260 -3.491529 1.232703 -1.450824 -3.324505 -2.316740 -0.786602 0.000000 0.000000 0.000000 0.746137 -8.094089 1.099761 0.742378 5.396289 -0.272362 0.522164 -2.728134 0.490046 0.000000 0.000000 0.000000 
-3381.132324 955.581543 1113.464966 -10.399158 3.445184 -1.019983 -0.083426 5.282177 0.262156 -0.287690 -0.990373 -0.143344 -0.275405 1.237044 -0.008215 -0.104507 -6.884410 2.875886 0.000000 0.000000 0.000000 3.098099 1.051496 0.815594 -0.065282 0.695403 -1.924768 0.695490 1.898510 5.804530 0.000000 0.000000 0.000000 2.622906 0.962484 -2.626368 0.027210 0.877889 -0.284830 -0.205928 0.365720 -1.915084 0.000000 0.000000 0.000000 -3.160888 -4.671814 2.430411 -3.544543 1.296037 -1.497420 -3.378406 -2.275243 -0.823229 0.000000 0.000000 0.000000 0.767937 -8.120000 1.214259 0.775661 5.224614 -0.253423 0.565967 -2.641302 0.499175 0.000000 0.000000 0.000000 
-3377.484619 954.972656 1113.343018 -10.316981 3.735515 -1.101758 -0.026056 5.413272 0.143427 -0.238628 -0.956210 -0.124267 -0.229200 1.213674 -0.022567 -0.141410 -7.005626 3.081004 0.000000 0.000000 0.000000 3.183788 1.024736 0.969744 -0.066620 0.594325 -2.061233 0.632180 2.400072 5.387918 0.000000 0.000000 0.000000 2.454273 0.777199 -2.461426 -0.011782 0.705943 -0.167022 -0.103518 1.120953 -1.463668 0.000000 0.000000 0.000000 -3.220978 -4.906368 2.530259 -3.635780 1.554096 -1.551249 -3.453541 -2.360217 -0.831097 0.000000 0.000000 0.000000 0.776805 -8.238313 1.361929 0.800510 5.241532 -0.330813 0.584067 -2.737600 0.516389 0.000000 0.000000 0.000000 
-3373.204834 954.149292 1113.125977 -10.218925 4.022303 -1.162977 0.012247 5.507282 0.014166 -0.205123 -0.919271 -0.093937 -0.199913 1.186822 -0.044388 -0.179235 -7.109753 3.277847 0.000000 0.000000 0.000000 3.267365 1.090181 1.020674 -0.077280 0.651607 -2.084562 0.573824 2.415730 4.965506 0.000000 0.000000 0.000000 2.422043 0.596819 -2.227376 -0.053149 0.487685 -0.167314 0.031280 1.742498 -0.692308 0.000000 0.000000 0.000000 -3.293101 -5.155726 2.603803 -3.746013 1.928913 -1.614844 -3.538920 -2.525082 -0.819332 0.000000 0.000000 0.000000 0.779721 -8.366925 1.523083 0.822756 5.374892 -0.459524 0.589482 -2.950288 0.540227 0.000000 0.000000 0.000000 
-3368.038330 953.331543 1112.748047 -10.121004 4.389547 -1.245469 0.027862 5.483271 -0.093837 -0.190844 -0.889734 -0.063038 -0.190052 1.162498 -0.065721 -0.216411 -7.203998 3.468709 0.000000 0.000000 0.000000 3.344903 1.249418 1.095646 -0.106057 0.757495 -2.233753 0.558642 2.178251 4.851943 0.000000 0.000000 0.000000 2.395677 0.564317 -2.024987 -0.054664 0.438407 -0.096756 0.108337 2.024282 -0.223119 0.000000 0.000000 0.000000 -3.363041 -5.421869 2.695304 -3.853081 2.268202 -1.680708 -3.623578 -2.708965 -0.801272 0.000000 0.000000 0.000000 0.773572 -8.551530 1.686130 0.835187 5.542455 -0.574011 0.584889 -3.190080 0.562733 0.000000 0.000000 0.000000 
-3361.800049 952.514221 1112.125000 -10.026162 4.923494 -1.380985 0.015992 5.287991 -0.174943 -0.199322 -0.884987 -0.031572 -0.203363 1.157041 -0.086698 -0.251642 -7.320798 3.659898 0.000000 0.000000 0.000000 3.433535 1.568551 1.259260 -0.169495 0.918704 -2.651341 0.619239 1.545679 5.294688 0.000000 0.000000 0.000000 2.334042 0.782100 -1.881907 0.011799 0.690313 0.140720 0.063539 1.702688 -0.396342 0.000000 0.000000 0.000000 -3.426211 -5.774939 2.853119 -3.957128 2.541807 -1.762512 -3.711590 -2.874430 -0.789873 0.000000 0.000000 0.000000 0.754560 -8.874727 1.867999 0.832486 5.732483 -0.651655 0.568039 -3.425271 0.579779 0.000000 0.000000 0.000000 
-3354.674072 951.703552 1111.342041 -9.933260 5.537393 -1.537262 -0.019213 4.974563 -0.234836 -0.226247 -0.884652 -0.001301 -0.235167 1.151232 -0.105831 -0.286605 -7.426686 3.846596 0.000000 0.000000 0.000000 3.521931 1.987859 1.460208 -0.247062 1.125567 -3.210445 0.725100 0.648479 6.041964 0.000000 0.000000 0.000000 2.277936 1.147218 -1.783209 0.120359 1.114968 0.463545 -0.040212 1.043947 -0.874639 0.000000 0.000000 0.000000 -3.487508 -6.143391 3.028871 -4.058318 2.778099 -1.845460 -3.798822 -3.050965 -0.774412 0.000000 0.000000 0.000000 0.726213 -9.252065 2.051792 0.820161 5.953960 -0.715066 0.541629 -3.676911 0.594583 0.000000 0.000000 0.000000 
-3346.954346 951.141174 1110.582031 -9.851271 6.056959 -1.663382 -0.065988 4.623948 -0.254157 -0.262604 -0.854729 0.015420 -0.274252 1.107971 -0.111585 -0.321941 -7.429355 4.004006 0.000000 0.000000 0.000000 3.550181 2.311987 1.627317 -0.299960 1.248798 -3.727127 0.815197 0.134706 6.672624 0.000000 0.000000 0.000000 2.213376 1.500300 -1.747803 0.218539 1.534979 0.774014 -0.114076 0.642920 -1.271153 0.000000 0.000000 0.000000 -3.547056 -6.317527 3.124470 -4.133889 2.913706 -1.878516 -3.858781 -3.283820 -0.729655 0.000000 0.000000 0.000000 0.695802 -9.479576 2.177719 0.806720 6.155621 -0.765989 0.515224 -3.944249 0.610925 0.000000 0.000000 0.000000 
-3338.572510 950.977600 1109.917969 -9.795253 6.398693 -1.737452 -0.143675 4.230969 -0.228623 -0.327187 -0.780819 0.017154 -0.338898 1.014125 -0.102793 -0.358920 -7.258900 4.122255 0.000000 0.000000 0.000000 3.465155 2.381102 1.779901 -0.300563 1.155354 -4.068951 0.833287 0.646419 6.828520 0.000000 0.000000 0.000000 2.162586 1.818754 -1.779565 0.277280 1.910795 1.012269 -0.124337 0.816052 -1.456655 0.000000 0.000000 0.000000 -3.596568 -6.176439 3.089147 -4.161587 2.899723 -1.837624 -3.867709 -3.603064 -0.636078 0.000000 0.000000 0.000000 0.663382 -9.445002 2.194976 0.790576 6.311306 -0.774442 0.490034 -4.238945 0.630432 0.000000 0.000000 0.000000 
-3329.596924 951.062378 1109.277954 -9.747750 6.644458 -1.779564 -0.232102 3.804848 -0.168295 -0.401223 -0.687363 0.011285 -0.411468 0.895214 -0.084875 -0.396265 -6.989542 4.213961 0.000000 0.000000 0.000000 3.312828 2.346981 1.889040 -0.280057 0.977334 -4.355927 0.833949 1.549887 6.866399 0.000000 0.000000 0.000000 2.098904 2.124646 -1.867064 0.319762 2.278860 1.228655 -0.107435 1.246841 -1.567096 0.000000 0.000000 0.000000 -3.643920 -5.838973 2.970109 -4.164357 2.783565 -1.745509 -3.850128 -3.970256 -0.516142 0.000000 0.000000 0.000000 0.629510 -9.258040 2.151439 0.773099 6.444947 -0.770239 0.464851 -4.540985 0.650598 0.000000 0.000000 0.000000 
-3320.523438 951.193787 1108.635986 -9.671826 6.867642 -1.802717 -0.259848 3.447447 -0.070459 -0.420495 -0.608569 -0.007863 -0.427753 0.790445 -0.060902 -0.432875 -6.754018 4.304064 0.000000 0.000000 0.000000 3.192621 2.471884 1.795922 -0.297652 0.984857 -4.771111 0.918121 1.593378 7.474461 0.000000 0.000000 0.000000 1.941735 2.326720 -1.978531 0.361398 2.566492 1.471464 -0.088415 1.583160 -1.611661 0.000000 0.000000 0.000000 -3.712983 -5.455140 2.815784 -4.185667 2.648297 -1.618877 -3.849588 -4.330513 -0.405792 0.000000 0.000000 0.000000 0.603831 -9.047004 2.136602 0.769075 6.580998 -0.845326 0.447439 -4.802312 0.669800 0.000000 0.000000 0.000000 
-3311.545166 951.347473 1107.931030 -9.546347 7.068892 -1.803606 -0.171836 3.223008 0.073854 -0.334128 -0.560379 -0.040389 -0.337192 0.715994 -0.034474 -0.475482 -6.574053 4.419199 0.000000 0.000000 0.000000 3.123217 2.908690 1.383442 -0.382118 1.332036 -5.433153 1.142998 0.118620 9.046357 0.000000 0.000000 0.000000 1.596498 2.342784 -2.091076 0.394784 2.698044 1.708121 -0.056314 1.783779 -1.457687 0.000000 0.000000 0.000000 -3.819302 -5.032756 2.624105 -4.242687 2.495944 -1.445902 -3.881722 -4.691838 -0.309602 0.000000 0.000000 0.000000 0.591303 -8.827880 2.192343 0.787331 6.726285 -1.054508 0.442003 -5.029093 0.690423 0.000000 0.000000 0.000000 
